<?xml version="1.0" standalone="no"?>
<!DOCTYPE svg PUBLIC "-//W3C//DTD SVG 20010904//EN"
 "http://www.w3.org/TR/2001/REC-SVG-20010904/DTD/svg10.dtd">
<svg version="1.0" xmlns="http://www.w3.org/2000/svg"
 width="700.000000pt" height="700.000000pt" viewBox="0 0 700.000000 700.000000"
 preserveAspectRatio="xMidYMid meet">
<metadata>
Created by potrace 1.11, written by Peter Selinger 2001-2013
</metadata>
<g transform="translate(0.000000,700.000000) scale(0.100000,-0.100000)"
fill="#000000" stroke="none">
<path d="M3305 6645 c-230 -64 -398 -205 -497 -415 -59 -125 -86 -306 -65
-437 5 -33 3 -42 -11 -48 -9 -4 -66 -24 -127 -46 -60 -22 -119 -44 -130 -49
-11 -5 -60 -23 -110 -40 -98 -35 -331 -120 -492 -180 l-101 -37 -46 66 c-59
85 -69 96 -141 157 -141 120 -324 184 -516 179 -91 -3 -127 -9 -205 -34 -241
-77 -416 -252 -500 -501 -27 -78 -29 -97 -29 -225 0 -109 5 -155 19 -205 44
-149 128 -282 233 -370 30 -25 60 -50 66 -56 38 -34 195 -104 268 -120 44 -9
161 -20 188 -18 121 11 161 18 213 36 51 17 62 18 73 7 7 -8 50 -79 97 -159
47 -80 145 -246 218 -368 l133 -224 -16 -31 c-9 -18 -48 -79 -86 -137 -38 -58
-127 -194 -196 -302 -123 -191 -144 -214 -171 -189 -21 20 -186 52 -271 52
-142 1 -237 -23 -367 -90 -248 -128 -405 -388 -406 -669 -1 -420 327 -758 744
-767 252 -6 464 96 632 303 l19 23 500 -252 c275 -138 505 -255 512 -260 6 -6
9 -22 6 -37 -24 -122 9 -329 72 -453 59 -114 186 -253 279 -305 142 -80 261
-113 411 -112 285 2 533 150 668 399 116 213 121 481 12 701 l-35 72 37 40
c21 22 47 49 58 61 11 12 106 111 210 220 105 109 206 215 225 235 19 20 89
93 155 162 183 191 433 452 534 558 86 91 91 94 113 81 347 -215 769 -148
1020 160 111 136 166 296 166 482 1 332 -211 623 -528 725 -210 68 -449 39
-639 -78 -26 -17 -51 -30 -54 -30 -9 0 -1327 1322 -1327 1331 0 4 13 28 30 52
36 54 84 174 99 247 59 295 -54 592 -293 770 -74 55 -133 85 -228 116 -71 24
-101 28 -213 30 -109 1 -143 -2 -210 -21z m-369 -1254 c31 -34 54 -67 51 -73
-5 -14 -525 -818 -536 -831 -4 -4 -148 62 -319 147 l-311 155 10 37 c25 89 35
229 21 301 -6 38 -6 55 2 61 6 5 72 30 146 56 74 26 142 50 150 53 8 4 164 61
345 127 l330 122 27 -47 c15 -26 53 -75 84 -108z m1692 -765 l664 -664 -40
-66 c-22 -36 -49 -92 -62 -126 -21 -55 -24 -60 -49 -55 -14 2 -48 7 -76 10
-27 3 -61 8 -75 10 -14 2 -45 7 -70 10 -25 3 -56 8 -70 10 -14 2 -45 7 -70 10
-59 7 -187 25 -225 30 -16 3 -86 12 -155 21 -69 9 -126 18 -128 19 -4 3 -8 33
-17 109 -41 358 -387 654 -755 648 -248 -5 -445 -100 -603 -291 l-29 -34 -109
53 c-60 30 -109 58 -109 63 0 4 24 45 53 90 30 45 98 150 151 232 53 83 149
230 212 327 l115 176 70 -24 c136 -47 302 -54 442 -18 65 16 180 68 232 102
17 11 32 21 35 21 3 0 303 -298 668 -663z m-2602 -183 c162 -81 294 -150 294
-153 0 -4 -13 -26 -29 -51 -124 -190 -231 -355 -269 -413 -39 -62 -45 -68 -55
-50 -5 10 -95 162 -199 337 -104 174 -186 322 -182 328 4 7 24 27 44 45 21 19
48 50 61 69 13 19 28 35 32 35 5 0 141 -66 303 -147z m621 -310 c63 -31 117
-62 119 -68 3 -6 0 -24 -6 -39 -21 -56 -30 -236 -16 -321 46 -277 244 -511
507 -599 41 -14 88 -27 104 -29 l30 -4 3 -610 2 -610 -57 -12 c-32 -7 -85 -24
-118 -37 -32 -13 -60 -22 -61 -21 -8 8 -164 272 -164 277 0 4 -8 18 -19 31
-10 13 -27 40 -38 59 -11 19 -170 287 -353 595 -183 308 -338 569 -344 580 -6
11 -37 63 -69 117 -31 53 -57 101 -57 107 0 6 17 37 39 69 21 31 89 136 151
232 207 320 220 340 226 340 3 0 57 -26 121 -57z m1838 -548 c233 -32 383 -53
502 -70 18 -3 57 -8 85 -11 29 -3 56 -9 60 -13 3 -3 9 -33 12 -66 13 -119 63
-258 126 -350 l32 -47 -28 -30 c-16 -17 -54 -56 -84 -88 -149 -156 -384 -401
-430 -450 -62 -65 -380 -397 -531 -554 -59 -61 -133 -139 -164 -173 l-58 -63
-46 35 c-70 53 -192 111 -276 131 l-75 18 0 608 c0 334 3 608 8 609 17 2 43 8
97 23 155 46 294 142 392 271 47 62 123 209 123 239 0 12 7 15 33 11 17 -2
118 -16 222 -30z m-2491 -282 c13 -21 116 -193 228 -383 113 -190 269 -453
348 -585 79 -132 148 -249 154 -260 6 -11 64 -109 129 -217 64 -108 117 -200
117 -205 0 -5 -14 -22 -31 -39 -17 -16 -51 -59 -76 -96 -24 -38 -46 -68 -47
-68 -2 0 -225 111 -497 248 l-495 247 18 85 c53 250 -22 504 -205 697 l-40 42
35 53 c39 58 148 226 252 387 37 57 70 110 73 117 7 20 10 18 37 -23z"/>
</g>
</svg>
