<svg width="2634" height="522" xmlns="http://www.w3.org/2000/svg">
 
<defs>
    <linearGradient id="myGradient">
        <stop offset="0%" stop-color="#00F260" />
        <stop offset="100%" stop-color="#0575E6" />

        <!-- <stop offset="0%" stop-color="#C6FFDD" />
        <stop offset="50%" stop-color="#FBD786" />
        <stop offset="100%" stop-color="#f7797d" /> -->
    </linearGradient>
</defs>

<path stroke-width="6px" stroke-linejoin="round" stroke-linecap="round" stroke="url(#myGradient)" fill="none" d="m0.25,501.5903c5.14,-1.02 106.94,4.12 96.66,-2.06c-10.29,-6.16 -31.88,-117.22 -23.65,-110.02c8.23,7.19 31.88,69.92 23.65,64.78c-8.23,-5.14 -98.72,-95.63 -92.55,-96.66c6.17,-1.03 350.65,-55.53 353.73,-51.42c3.09,4.11 65.81,215.94 50.39,185.1c-15.42,-30.85 -87.4,-163.5 -66.84,-174.81c20.57,-11.32 168.64,-29.82 170.7,-45.25c2.06,-15.43 -12.34,-25.71 -13.37,-18.52c-1.03,7.2 -5.14,221.09 -8.23,215.95c-3.08,-5.14 -44.21,-137.8 -34.96,-141.9c9.26,-4.12 101.8,15.42 103.86,2.05c2.06,-13.36 2.06,-50.38 -5.14,-16.45c-7.2,33.93 -23.65,154.24 -29.82,154.24s-53.47,-5.14 -55.52,-2.06c-2.06,3.09 9.26,43.2 1.03,41.14c-8.23,-2.06 -49.36,-7.2 -6.17,-10.28c43.19,-3.09 115.17,-3.09 86.38,3.08c-28.79,6.17 -163.5,-1.03 -163.5,-7.2s-35.99,-49.36 -29.82,-49.36s35.99,9.26 18.51,9.26s-128.54,-12.34 -131.62,-11.31c-3.09,1.03 -38.05,87.4 -15.43,45.25c22.62,-42.16 70.96,-146.02 64.79,-147.05c-6.17,-1.02 -82.26,11.32 -82.26,11.32c0,0 -100.77,139.84 -100.77,143.96s31.88,13.36 34.96,8.22c3.09,-5.14 148.08,-157.32 112.09,-137.79c-35.99,19.54 -56.56,140.88 -70.95,140.88s-62.73,-6.17 -8.23,-7.19c54.5,-1.03 191.27,5.14 191.27,5.14c0,0 15.42,18.51 -2.06,16.45c-17.48,-2.06 -61.7,-7.2 -8.22,-5.14c53.47,2.06 236.51,-2.06 236.51,-2.06c0,0 87.07,-34.27 88.08,-19.1c1.01,15.16 -80.89,12.13 -80.89,-1.02s1.01,-40.44 1.01,-40.44c0,0 74.82,1 62.69,3.03c-12.13,2.02 -63.7,-5.05 -63.7,-17.18s2.02,-109.2 7.08,-112.23c5.05,-3.03 79.88,-5.05 71.78,0c-8.09,5.06 -75.83,-10.11 -75.83,-10.11c0,0 5.06,-178.96 7.08,-185.03c2.02,-6.07 24.27,-68.76 18.2,-65.72c-6.07,3.03 8.09,80.88 8.09,80.88c0,0 -20.22,4.05 -11.12,3.04c9.1,-1.02 30.33,2.02 30.33,2.02c0,0 7.08,43.48 -1.01,24.26c-8.09,-19.21 30.33,-188.06 21.23,-172.89c-9.1,15.17 23.25,166.83 18.2,163.8c-5.05,-3.04 0,-56.63 0,-56.63c0,0 17.19,-49.54 14.16,-42.46c-3.03,7.07 14.15,61.68 14.15,61.68l-1.01,67.74s-115.26,-3.04 -83.92,-6.07c31.35,-3.04 81.9,-1.02 83.92,14.15c2.02,15.17 1.01,117.28 0,113.24c-1.01,-4.04 -8.09,-109.2 -11.12,-98.07c-3.04,11.12 -4.04,47.52 -8.09,47.52s-51.57,2.02 -50.55,-6.07c1.01,-8.1 11.12,-69.77 22.24,-42.47c11.12,27.3 11.12,106.17 15.17,108.19c4.05,2.02 29.32,2.02 29.32,2.02l1.02,164.81s-19.21,-121.33 -30.33,-121.33s-78.87,2.02 -51.57,5.05c27.3,3.04 104.14,2.02 104.14,2.02c0,0 4.05,132.46 2.03,119.31c-2.03,-13.14 5.05,-238.61 5.05,-238.61c0,0 6.07,36.39 11.12,23.26c5.06,-13.15 10.11,-32.36 10.11,-29.32s9.1,278.05 2.02,245.69c-7.08,-32.35 3.03,-187.05 9.1,-200.2c6.07,-13.15 14.16,-55.61 18.2,-47.52c4.04,8.09 17.19,60.67 22.25,50.55c5.05,-10.11 3.03,-35.38 3.03,-35.38c0,0 3.03,22.24 10.11,15.16c7.08,-7.07 13.14,-22.24 13.14,-19.21s-1.01,80.88 -1.01,80.88c0,0 -65.72,8.09 -54.6,2.02c11.12,-6.07 58.65,-3.03 57.64,5.06c-1.02,8.09 -1.02,143.57 -1.02,143.57c0,0 -28.31,8.09 -27.3,0c1.01,-8.09 8.09,-39.43 -15.17,-37.41c-23.26,2.02 -31.34,50.56 -26.29,37.41c5.06,-13.14 1.01,-144.59 5.06,-125.37c4.05,19.21 7.08,73.81 13.14,54.6c6.07,-19.21 16.17,-81.9 16.17,-58.65s-4.04,69.76 1.01,56.62c5.06,-13.15 16.18,-63.71 18.2,-52.58c2.02,11.12 -2.02,133.46 3.04,135.48c5.05,2.02 28.31,3.04 28.31,-1.01s-2.02,-115.26 -2.02,-115.26c0,0 17.19,14.15 20.22,12.13c3.04,-2.02 3.04,-55.61 3.04,-55.61c0,0 6.07,20.22 12.13,8.09c6.07,-12.13 11.13,-56.62 10.11,-42.46c-1.01,14.15 0,122.33 0,122.33c0,0 -49.54,8.09 -33.37,2.02c16.18,-6.07 49.54,1.01 50.56,-4.04c1.01,-5.05 14.15,-76.84 7.07,-62.68c-7.07,14.15 5.06,69.76 5.06,69.76c0,0 4.04,68.75 1.02,69.76c-3.04,1 -76.84,6.07 -51.57,-2.02c25.27,-8.09 72.79,-4.04 72.79,-4.04c0,0 10.71,16.03 -0.96,10.19c-11.68,-5.83 1.45,-31.36 7.29,-34.28c5.84,-2.92 55.44,-2.19 55.44,-2.19c0,0 -12.4,22.61 -14.6,12.39c-2.18,-10.21 52.53,-42.31 119.64,-75.86c67.12,-33.56 253.13,-115.99 254.59,-123.28c1.46,-7.3 -94.83,50.33 -131.3,90.45c-36.48,40.12 -69.3,78.79 -100.67,86.81c-31.37,8.02 -111.61,16.77 -108.7,10.94c2.92,-5.84 8.02,27.72 4.38,29.18c-3.64,1.46 -63.46,11.67 -54.71,7.29c8.75,-4.37 221.77,2.19 223.23,-1.46c1.46,-3.64 9.48,-39.39 9.48,-39.39c0,0 -56.17,-5.84 -46.69,5.1c9.48,10.94 20.42,-2.92 39.39,-29.18c18.97,-26.26 97.75,-112.34 117.45,-123.29c19.7,-10.94 22.61,-20.42 35.75,-17.51c13.13,2.92 227.59,181.64 201.34,175.81c-26.26,-5.84 -207.9,-169.97 -215.93,-156.11c-8.03,13.86 179.45,165.59 150.27,156.11c-29.18,-9.48 -183.1,-142.98 -188.94,-129.13c-5.83,13.86 129.13,127.67 106.51,124.75c-22.61,-2.92 -140.06,-101.4 -146.62,-88.99c-6.57,12.39 70.03,92.64 60.54,90.46c-9.48,-2.18 -93.37,-55.45 -94.83,-50.33c-1.46,5.11 35.74,47.41 32.1,49.6c-3.64,2.2 -44.5,-32.09 -46.69,-27.72c-2.18,4.38 3.65,20.43 10.94,26.99c7.29,6.56 393.93,-0.72 393.2,5.11c-0.73,5.84 -4.38,12.4 -23.35,13.13c-18.97,0.74 -360.37,-4.37 -361.1,-1.46c-0.72,2.92 -6.56,24.07 -15.32,18.97c-8.76,-5.11 409.24,-2.19 409.98,-6.56c0.72,-4.38 6.56,-43.04 0.72,-33.56c-5.83,9.48 -4.37,33.56 6.57,35.02c0,0 16.99,7.91 18.3,-1.22c1.31,-9.13 -1.31,-39.12 -3.26,-39.12s-11.08,7.17 -5.21,11.73c5.87,4.57 395.21,9.13 395.21,2.61s-1.3,-16.3 -3.26,-16.3s-379.56,3.25 -376.95,3.91c2.61,0.65 7.17,-181.3 3.92,-181.3s-12.4,1.96 -5.22,3.92c7.18,1.95 116.74,-3.26 116.74,-0.65s-80.87,168.91 -69.78,170.86c11.09,1.96 50.21,-25.43 130.43,-28.7c80.22,-3.25 153.91,24.79 115.43,26.74c-38.48,1.96 -212.61,2.61 -215.22,0c-2.6,-2.6 -26.74,-17.61 1.31,-33.26c28.04,-15.65 180,-30 202.83,-5.87c22.82,24.13 -230.87,11.73 -198.26,-15c32.61,-26.74 243.25,-14.35 202.83,-1.96c-40.44,12.39 -235.44,2.6 -195,-23.48c40.43,-26.09 181.95,-20.87 179.99,-1.95c-1.95,18.91 -204.12,9.79 -170.86,-23.48c33.26,-33.26 135.64,-27.39 152.6,-13.69c16.96,13.69 56.09,30 12.4,24.78c-43.7,-5.21 -180.65,-13.69 -157.17,-37.83c23.48,-24.13 105,-26.09 127.82,-15c22.83,11.09 48.27,23.47 16.3,19.57c-31.95,-3.92 -150.64,-19.57 -130.43,-35.87c20.22,-16.3 102.4,-20.22 109.57,-7.17c7.17,13.04 -115.43,6.52 -107.61,-8.48c7.83,-15.01 53.48,-43.04 92.61,-22.18c39.12,20.87 102.39,196.3 95.87,194.35c-6.53,-1.96 -58.7,-161.73 -50.22,-165c8.48,-3.26 108.92,6.52 108.26,0.65c-0.65,-5.87 -3.26,-17.61 -6.52,-5.87c-3.26,11.73 16.3,224.99 -1.96,226.95c-18.26,1.95 -354.13,4.56 -346.95,-5.22c7.17,-9.78 368.46,-18.92 371.73,-7.82c3.26,11.09 -18.91,22.18 -13.04,15.65c5.87,-6.52 32.6,-7.83 32.6,-7.83c0,0 31.61,15.26 11.45,13.43c-20.16,-1.84 -13.75,-190.58 -13.75,-190.58l-19.24,-0.92s-1.83,66.89 -5.49,60.47c-3.66,-6.41 74.21,-1.83 66.88,-3.66c-7.32,-1.83 4.59,-45.81 10.08,-34.82c5.5,11 13.75,34.82 10.99,32.99c-2.75,-1.83 197.91,-2.75 199.74,0.91c1.83,3.66 11,51.31 3.66,53.14c-7.33,1.83 -257.46,6.41 -253.79,-2.75c3.66,-9.17 5.49,-22.9 7.32,-10.08c1.83,12.83 -0.91,54.97 -0.91,48.57s36.65,-45.81 43.06,-25.65c6.42,20.16 -18.32,36.65 -6.41,25.65c11.92,-11 54.06,-47.65 61.38,-23.82c7.34,23.82 -10.99,33.9 -3.66,22.9c7.34,-11 37.57,-36.65 48.56,-22.9c10.99,13.74 4.58,30.23 6.41,22.9c1.83,-7.33 18.32,-34.82 33.9,-21.07c15.58,13.75 11,26.57 14.66,21.99c3.66,-4.58 40.31,-39.4 44.89,-23.82c4.58,15.58 5.49,62.3 5.49,62.3c0,0 -251.04,10.08 -231.8,3.66c19.24,-6.41 230.89,6.42 230.89,6.42c0,0 5.5,-186 0.92,-186s-18.32,10.08 -2.75,9.16c15.58,-0.91 63.22,-3.66 63.22,-3.66c0,0 4.58,46.72 1.83,32.07c-2.75,-14.66 -6.42,-56.81 -0.92,-60.48c5.5,-3.66 60.47,-3.66 60.47,-3.66l-1.83,47.65s-94.37,61.38 -97.12,45.81c-2.75,-15.58 123.69,-53.14 123.69,-53.14c0,0 2.76,-57.72 8.25,-42.14c5.5,15.58 -1.83,39.4 9.16,38.48c11,-0.92 57.72,1.83 58.64,-2.75c0.92,-4.58 8.25,-33.9 11.92,-22.91c3.66,10.99 7.32,46.72 7.32,46.72c0,0 -129.18,12.83 -93.46,3.66c35.73,-9.16 92.54,5.51 92.54,5.51l0.91,46.72l-137.43,-1.83l-85.2,11.91s-3.67,77.88 0,65.96c3.66,-11.91 12.82,-67.79 18.33,-51.3c5.49,16.49 12.82,62.3 12.82,50.39s11,-76.05 13.75,-53.14c2.75,22.91 5.5,70.55 -1.83,71.47c-7.34,0.91 -62.31,10.08 -35.73,3.67c26.57,-6.42 74.21,-0.92 76.05,-7.33c1.83,-6.41 9.16,-87.96 2.75,-68.72c-6.41,19.24 0,68.72 5.5,69.64c5.5,0.92 53.14,6.42 54.06,0.92c0.92,-5.5 -1.83,-79.71 21.07,-57.72c22.91,21.99 23.83,52.23 20.17,54.06c-3.67,1.83 -65.06,0 -33.9,-0.92c31.15,-0.91 43.98,3.66 47.64,-0.91c3.66,-4.58 2.75,-76.96 -0.91,-76.96s-32.99,0.91 -16.49,5.5c16.49,4.58 66.89,4.58 69.64,-0.92c2.75,-5.49 -10.07,-15.58 -12.83,-11.91c-2.75,3.67 9.17,93.46 0,95.3c-9.16,1.83 -41.23,-4.59 -19.24,-5.5c22,-0.92 47.65,0 47.65,0" class="uuid-da25b585-f558-48e3-8e31-0e2e6d339645"/>

</svg>